# This file uses centimeters as units for non-parametric coordinates.

mtllib pataDelanteIzq.mtl
g default
v -1.193392 -1.638574 -1.652828
v -0.495919 -2.196707 -2.520434
v -0.108990 -1.476457 -1.567192
v -0.908156 -1.470624 -1.762270
v -0.774387 -0.765167 -0.746477
v -1.058707 -0.933111 -0.637010
v 0.042644 -2.299231 -2.741665
v -0.212322 -2.111951 -2.571465
vt 0.320300 0.568400
vt 0.462900 0.664100
vt 0.261700 0.834000
vt 0.312500 0.628900
vt 0.113300 0.742200
vt 0.121100 0.681600
vt 0.484400 0.775400
vt 0.453100 0.728500
vn 0.075201 -0.810017 0.581565
vn 0.075201 -0.810017 0.581565
vn 0.075201 -0.810017 0.581565
vn -0.574589 0.705751 -0.414444
vn -0.574589 0.705751 -0.414444
vn -0.574589 0.705751 -0.414444
vn -0.575798 0.705344 -0.413458
vn -0.575798 0.705344 -0.413458
vn -0.575798 0.705344 -0.413458
vn -0.536798 0.444250 -0.717279
vn -0.536798 0.444250 -0.717279
vn -0.536798 0.444250 -0.717279
vn 0.078791 -0.823697 0.561529
vn 0.078791 -0.823697 0.561529
vn 0.078791 -0.823697 0.561529
vn 0.521811 -0.388305 0.759561
vn 0.521811 -0.388305 0.759561
vn 0.521811 -0.388305 0.759561
vn 0.146753 0.803269 -0.577255
vn 0.146753 0.803269 -0.577255
vn 0.146753 0.803269 -0.577255
vn -0.278777 0.409794 -0.868534
vn -0.278777 0.409794 -0.868534
vn -0.278777 0.409794 -0.868534
vn -0.311341 0.596113 -0.740078
vn -0.311341 0.596113 -0.740078
vn -0.311341 0.596113 -0.740078
vn 0.083410 -0.811068 0.578975
vn 0.083410 -0.811068 0.578975
vn 0.083410 -0.811068 0.578975
vn 0.137796 0.830493 -0.539716
vn 0.137796 0.830493 -0.539716
vn 0.137796 0.830493 -0.539716
vn 0.236505 0.809906 -0.536767
vn 0.236505 0.809906 -0.536767
vn 0.236505 0.809906 -0.536767
s off
g polySurface10 polySurface2
usemtl Dorrie:Skin
f 1/1/1 2/2/2 3/3/3
f 4/4/4 1/1/5 5/5/6
f 6/6/7 5/5/8 1/1/9
f 1/1/10 4/4/11 2/2/12
f 6/6/13 1/1/14 3/3/15
f 6/6/16 3/3/17 5/5/18
f 5/5/19 3/3/20 4/4/21
f 7/7/22 2/2/23 8/8/24
f 8/8/25 2/2/26 4/4/27
f 7/7/28 3/3/29 2/2/30
f 4/4/31 3/3/32 8/8/33
f 7/7/34 8/8/35 3/3/36
