# This file uses centimeters as units for non-parametric coordinates.

mtllib manecilla2.mtl
g default
v 0.198962 -0.246466 -0.001394
v 0.163062 -0.271604 -0.001394
v 0.262895 -0.274271 -0.001394
v 0.167324 -0.341191 -0.001394
v 0.198962 -0.246466 -0.046974
v 0.163062 -0.271604 -0.046974
v 0.262895 -0.274271 -0.046974
v 0.167324 -0.341191 -0.046974
v 0.275374 -0.393797 -0.001394
v 0.275374 -0.393797 -0.046974
v 0.086369 -0.162073 -0.001394
v 0.122268 -0.136936 -0.001394
v 0.122268 -0.136936 -0.046974
v 0.086369 -0.162073 -0.046974
v 0.069955 -0.153090 -0.001394
v 0.119441 -0.118440 -0.001394
v 0.119441 -0.118440 -0.046974
v 0.069955 -0.153090 -0.046974
v 0.058344 -0.140746 -0.001394
v 0.111812 -0.103306 -0.001394
v 0.111812 -0.103306 -0.046974
v 0.058344 -0.140746 -0.046974
v 0.050714 -0.125611 -0.001394
v 0.100200 -0.090961 -0.001394
v 0.100200 -0.090961 -0.046974
v 0.050714 -0.125611 -0.046974
v 0.047887 -0.107117 -0.001394
v 0.083787 -0.081979 -0.001394
v 0.083787 -0.081979 -0.046974
v 0.047887 -0.107117 -0.046974
v 0.020557 -0.050733 -0.001394
v 0.040153 -0.037013 -0.001394
v 0.040153 -0.037013 -0.046974
v 0.020557 -0.050733 -0.046974
v 0.130040 -0.213110 -0.001394
v 0.155291 -0.195429 -0.001394
v 0.155291 -0.195429 -0.046974
v 0.130040 -0.213110 -0.046974
v -0.022304 -0.012264 -0.001394
v 0.018661 0.016421 -0.001394
v 0.018661 0.016421 -0.046974
v -0.022304 -0.012264 -0.046974
v 0.246010 -0.288161 -0.001394
v 0.207179 -0.268178 -0.001394
v 0.180654 -0.286751 -0.001394
v 0.186151 -0.330075 -0.001394
v 0.253827 -0.363024 -0.001394
v 0.246010 -0.288161 -0.041977
v 0.207179 -0.268178 -0.041977
v 0.180654 -0.286751 -0.041977
v 0.186151 -0.330075 -0.041977
v 0.253827 -0.363024 -0.041977
vt 0.832375 0.080103
vt 0.832375 0.216383
vt 0.832375 0.216383
vt 0.832375 0.080103
vt 0.872653 0.216383
vt 0.872653 0.216383
vt 0.912931 0.216383
vt 0.912931 0.080103
vt 0.912931 0.080103
vt 0.912931 0.216383
vt 0.912931 0.080103
vt 0.832375 0.080103
vt 0.832375 0.080103
vt 0.912931 0.080103
vt 0.832375 0.080103
vt 0.912931 0.080103
vt 0.832375 0.080103
vt 0.912931 0.080103
vt 0.832375 0.080103
vt 0.832375 0.080103
vt 0.832375 0.080103
vt 0.832375 0.080103
vt 0.912931 0.080103
vt 0.912931 0.080103
vt 0.912931 0.080103
vt 0.912931 0.080103
vt 0.832375 0.080103
vt 0.832375 0.080103
vt 0.912931 0.080103
vt 0.912931 0.080103
vt 0.832375 0.080103
vt 0.832375 0.080103
vt 0.912931 0.080103
vt 0.912931 0.080103
vt 0.832375 0.080103
vt 0.832375 0.080103
vt 0.912931 0.080103
vt 0.912931 0.080103
vt 0.832375 0.080103
vt 0.912931 0.080103
vt 0.832375 0.080103
vt 0.912931 0.080103
vt 0.832375 0.080103
vt 0.832375 0.216383
vt 0.912931 0.080103
vt 0.912931 0.216383
vt 0.872653 0.216383
vt 0.832375 0.080103
vt 0.832375 0.216383
vt 0.912931 0.080103
vt 0.912931 0.216383
vt 0.872653 0.216383
vn 0.398823 0.917028 0.000000
vn 0.398823 0.917028 0.000000
vn 0.398823 0.917028 0.000000
vn 0.398823 0.917028 0.000000
vn 0.398823 0.917028 0.000000
vn 0.398823 0.917028 0.000000
vn 0.994594 0.103841 0.000000
vn 0.994594 0.103840 0.000000
vn 0.994594 0.103841 0.000000
vn 0.994594 0.103840 0.000000
vn 0.994594 0.103841 0.000000
vn 0.994594 0.103841 0.000000
vn -0.998130 -0.061129 -0.000000
vn -0.998130 -0.061129 -0.000000
vn -0.998130 -0.061129 -0.000000
vn -0.998130 -0.061129 -0.000000
vn -0.998130 -0.061129 -0.000000
vn -0.998130 -0.061129 -0.000000
vn -0.573576 0.819152 0.000001
vn -0.573576 0.819152 0.000001
vn -0.573576 0.819152 0.000001
vn -0.573576 0.819152 0.000001
vn -0.573576 0.819152 0.000001
vn -0.573576 0.819152 0.000001
vn -0.437750 -0.899097 -0.000000
vn -0.437749 -0.899097 -0.000000
vn -0.437749 -0.899097 -0.000000
vn -0.437749 -0.899097 -0.000000
vn -0.437749 -0.899097 -0.000000
vn -0.437749 -0.899097 -0.000000
vn -0.000000 0.000000 1.000000
vn -0.000000 0.000000 1.000000
vn -0.000000 0.000000 1.000000
vn -0.000000 0.000000 1.000000
vn -0.000000 0.000000 1.000000
vn -0.000000 0.000000 1.000000
vn 0.759810 0.650145 0.000000
vn 0.759810 0.650145 0.000000
vn 0.759810 0.650145 0.000000
vn 0.759810 0.650145 0.000000
vn 0.759810 0.650145 0.000000
vn 0.759810 0.650145 0.000000
vn 0.000000 0.000000 -1.000000
vn 0.000000 0.000000 -1.000000
vn 0.000000 0.000000 -1.000000
vn 0.000000 0.000000 -1.000000
vn 0.000000 0.000000 -1.000000
vn 0.000000 0.000000 -1.000000
vn -0.870807 -0.491626 -0.000000
vn -0.870807 -0.491626 -0.000000
vn -0.870807 -0.491626 -0.000000
vn -0.870807 -0.491626 -0.000000
vn -0.870807 -0.491626 -0.000000
vn -0.870807 -0.491626 -0.000000
vn 0.988521 0.151082 0.000000
vn 0.988521 0.151082 0.000000
vn 0.988521 0.151082 0.000000
vn 0.988521 0.151082 0.000000
vn 0.988521 0.151082 0.000000
vn 0.988521 0.151082 0.000000
vn 0.000000 -0.000001 -1.000000
vn 0.000000 -0.000001 -1.000000
vn 0.000000 -0.000001 -1.000000
vn 0.000000 0.000001 -1.000000
vn 0.000000 0.000001 -1.000000
vn 0.000000 0.000001 -1.000000
vn -0.480064 -0.877233 -0.000000
vn -0.480064 -0.877233 -0.000000
vn -0.480064 -0.877233 -0.000000
vn -0.480065 -0.877233 -0.000000
vn -0.480065 -0.877233 -0.000000
vn -0.480065 -0.877233 -0.000000
vn 0.892954 0.450148 0.000000
vn 0.892954 0.450147 0.000000
vn 0.892954 0.450148 0.000000
vn 0.892954 0.450147 0.000000
vn 0.892954 0.450147 0.000000
vn 0.892954 0.450147 0.000000
vn 0.000000 0.000001 -1.000000
vn 0.000000 0.000001 -1.000000
vn 0.000000 0.000001 -1.000000
vn 0.000000 0.000000 -1.000000
vn 0.000000 0.000000 -1.000000
vn 0.000000 0.000000 -1.000000
vn -0.728409 -0.685143 -0.000000
vn -0.728409 -0.685143 -0.000000
vn -0.728409 -0.685143 -0.000000
vn -0.728409 -0.685143 -0.000000
vn -0.728409 -0.685143 -0.000000
vn -0.728409 -0.685143 -0.000000
vn 0.728409 0.685143 0.000000
vn 0.728409 0.685143 0.000000
vn 0.728409 0.685143 0.000000
vn 0.728409 0.685143 0.000000
vn 0.728409 0.685143 0.000000
vn 0.728409 0.685143 0.000000
vn 0.000000 -0.000000 -1.000000
vn 0.000000 -0.000000 -1.000000
vn 0.000000 -0.000000 -1.000000
vn 0.000000 0.000000 -1.000000
vn 0.000000 0.000000 -1.000000
vn 0.000000 0.000000 -1.000000
vn -0.892954 -0.450147 -0.000000
vn -0.892954 -0.450147 -0.000000
vn -0.892954 -0.450147 -0.000000
vn -0.892954 -0.450147 -0.000000
vn -0.892954 -0.450147 -0.000000
vn -0.892954 -0.450147 -0.000000
vn 0.480065 0.877233 0.000000
vn 0.480065 0.877233 0.000000
vn 0.480065 0.877233 0.000000
vn 0.480065 0.877233 0.000000
vn 0.480065 0.877233 0.000000
vn 0.480065 0.877233 0.000000
vn 0.000000 0.000001 -1.000000
vn 0.000000 0.000001 -1.000000
vn 0.000000 0.000001 -1.000000
vn 0.000000 0.000001 -1.000000
vn 0.000000 0.000001 -1.000000
vn 0.000000 0.000001 -1.000000
vn -0.988521 -0.151082 -0.000000
vn -0.988521 -0.151082 -0.000000
vn -0.988521 -0.151082 -0.000000
vn -0.988521 -0.151082 -0.000000
vn -0.988521 -0.151082 -0.000000
vn -0.988521 -0.151082 -0.000000
vn -0.000000 0.000000 1.000000
vn -0.000000 0.000000 1.000000
vn -0.000000 0.000000 1.000000
vn 0.000001 0.000000 1.000000
vn 0.000001 0.000000 1.000000
vn 0.000001 0.000000 1.000000
vn 0.717656 0.696398 0.000000
vn 0.717656 0.696398 0.000000
vn 0.717656 0.696398 0.000000
vn 0.717656 0.696398 0.000000
vn 0.717656 0.696398 0.000000
vn 0.717656 0.696398 0.000000
vn 0.000000 0.000000 -1.000000
vn 0.000000 0.000000 -1.000000
vn 0.000000 0.000000 -1.000000
vn 0.000000 0.000000 -1.000000
vn 0.000000 0.000000 -1.000000
vn 0.000000 0.000000 -1.000000
vn -0.899853 -0.436194 -0.000000
vn -0.899853 -0.436194 -0.000000
vn -0.899853 -0.436194 -0.000000
vn -0.899853 -0.436194 -0.000000
vn -0.899853 -0.436194 -0.000000
vn -0.899853 -0.436194 -0.000000
vn -0.000000 0.000000 1.000000
vn -0.000000 0.000000 1.000000
vn -0.000000 0.000000 1.000000
vn -0.000000 0.000000 1.000000
vn -0.000000 0.000000 1.000000
vn -0.000000 0.000000 1.000000
vn 0.870807 0.491626 0.000000
vn 0.870807 0.491626 0.000000
vn 0.870807 0.491626 0.000000
vn 0.870807 0.491626 0.000000
vn 0.870807 0.491626 0.000000
vn 0.870807 0.491626 0.000000
vn 0.000000 0.000000 -1.000000
vn 0.000000 0.000000 -1.000000
vn 0.000000 0.000000 -1.000000
vn 0.000000 0.000000 -1.000000
vn 0.000000 0.000000 -1.000000
vn 0.000000 0.000000 -1.000000
vn -0.759810 -0.650145 -0.000000
vn -0.759810 -0.650145 -0.000000
vn -0.759810 -0.650145 -0.000000
vn -0.759810 -0.650145 -0.000000
vn -0.759810 -0.650145 -0.000000
vn -0.759810 -0.650145 -0.000000
vn 0.000001 0.000000 1.000000
vn 0.000001 0.000000 1.000000
vn 0.000001 0.000000 1.000000
vn -0.000000 0.000000 1.000000
vn -0.000000 0.000000 1.000000
vn -0.000000 0.000000 1.000000
vn 0.927770 0.373152 0.000000
vn 0.927770 0.373152 0.000000
vn 0.927770 0.373152 0.000000
vn 0.927770 0.373152 0.000000
vn 0.927770 0.373152 0.000000
vn 0.927770 0.373151 0.000000
vn 0.000000 0.000000 -1.000000
vn 0.000000 0.000000 -1.000000
vn 0.000000 0.000000 -1.000000
vn 0.000000 0.000000 -1.000000
vn 0.000000 0.000000 -1.000000
vn 0.000000 0.000000 -1.000000
vn -0.667964 -0.744194 -0.000000
vn -0.667964 -0.744194 -0.000000
vn -0.667964 -0.744194 -0.000000
vn -0.667964 -0.744194 -0.000000
vn -0.667964 -0.744194 -0.000000
vn -0.667964 -0.744194 -0.000000
vn -0.000001 0.000000 1.000000
vn -0.000001 0.000000 1.000000
vn -0.000001 0.000000 1.000000
vn -0.000001 0.000001 1.000000
vn -0.000001 0.000001 1.000000
vn -0.000001 0.000001 1.000000
vn -0.000000 0.000001 1.000000
vn -0.000000 0.000001 1.000000
vn -0.000000 0.000001 1.000000
vn -0.000000 0.000001 1.000000
vn -0.000000 0.000001 1.000000
vn -0.000000 0.000001 1.000000
vn -0.000000 0.000001 1.000000
vn -0.000000 0.000001 1.000000
vn -0.000000 0.000001 1.000000
vn -0.000000 0.000001 1.000000
vn -0.000000 0.000001 1.000000
vn -0.000000 0.000001 1.000000
vn 0.000001 0.000001 1.000000
vn 0.000001 0.000001 1.000000
vn 0.000001 0.000001 1.000000
vn -0.000000 0.000000 1.000000
vn -0.000000 0.000000 1.000000
vn -0.000000 0.000000 1.000000
vn -0.000000 0.000000 1.000000
vn -0.000000 0.000000 1.000000
vn -0.000000 0.000000 1.000000
vn -0.000001 -0.000001 1.000000
vn -0.000001 -0.000001 1.000000
vn -0.000001 -0.000001 1.000000
vn -0.457570 -0.889174 -0.000000
vn -0.457570 -0.889174 -0.000000
vn -0.457570 -0.889174 -0.000000
vn -0.457570 -0.889174 -0.000000
vn -0.457570 -0.889174 -0.000000
vn -0.457570 -0.889174 -0.000000
vn 0.573576 -0.819152 0.000000
vn 0.573576 -0.819152 0.000000
vn 0.573576 -0.819152 0.000000
vn 0.573576 -0.819152 0.000000
vn 0.573576 -0.819152 0.000000
vn 0.573576 -0.819152 0.000000
vn 0.992048 0.125860 0.000000
vn 0.992048 0.125860 0.000000
vn 0.992048 0.125860 0.000000
vn 0.992048 0.125860 0.000000
vn 0.992048 0.125860 0.000000
vn 0.992048 0.125860 0.000000
vn 0.437749 0.899097 0.000000
vn 0.437749 0.899097 0.000000
vn 0.437749 0.899097 0.000000
vn 0.437749 0.899097 0.000000
vn 0.437749 0.899097 0.000000
vn 0.437749 0.899097 0.000000
vn -0.994594 -0.103840 -0.000000
vn -0.994594 -0.103840 -0.000000
vn -0.994594 -0.103840 -0.000000
vn -0.994594 -0.103840 -0.000000
vn -0.994594 -0.103840 -0.000000
vn -0.994594 -0.103840 -0.000000
vn -0.000000 0.000000 1.000000
vn -0.000000 0.000000 1.000000
vn -0.000000 0.000000 1.000000
vn -0.000000 0.000000 1.000000
vn -0.000000 0.000000 1.000000
vn -0.000000 0.000000 1.000000
vn -0.000000 0.000000 1.000000
vn -0.000000 0.000000 1.000000
vn -0.000000 0.000000 1.000000
vn -0.000000 0.000000 1.000000
vn -0.000000 0.000000 1.000000
vn -0.000000 0.000000 1.000000
vn -0.000000 0.000000 1.000000
vn -0.000000 0.000000 1.000000
vn -0.000000 0.000000 1.000000
vn -0.000000 0.000000 1.000000
vn -0.000000 0.000000 1.000000
vn -0.000000 0.000000 1.000000
vn -0.000000 0.000000 1.000000
vn -0.000000 0.000000 1.000000
vn -0.000000 0.000000 1.000000
vn -0.000000 0.000000 1.000000
vn -0.000000 0.000000 1.000000
vn -0.000000 0.000000 1.000000
s off
g polySurface4 polySurface3 clock:polySurface2
usemtl clock:lambert2SG
f 1/1/1 3/2/2 7/3/3
f 7/3/4 5/4/5 1/1/6
f 9/5/7 10/6/8 7/3/9
f 7/3/10 3/2/11 9/5/12
f 4/7/13 2/8/14 6/9/15
f 6/9/16 8/10/17 4/7/18
f 39/11/19 40/12/20 41/13/21
f 41/13/22 42/14/23 39/11/24
f 4/7/25 8/10/26 10/6/27
f 10/6/28 9/5/29 4/7/30
f 1/1/31 36/15/32 35/16/33
f 35/16/34 2/8/35 1/1/36
f 5/4/37 37/17/38 36/15/39
f 36/15/40 1/1/41 5/4/42
f 6/9/43 38/18/44 37/17/45
f 37/17/46 5/4/47 6/9/48
f 2/8/49 35/16/50 38/18/51
f 38/18/52 6/9/53 2/8/54
f 12/19/55 13/20/56 17/21/57
f 17/21/58 16/22/59 12/19/60
f 13/20/61 14/23/62 18/24/63
f 18/24/64 17/21/65 13/20/66
f 14/23/67 11/25/68 15/26/69
f 15/26/70 18/24/71 14/23/72
f 16/22/73 17/21/74 21/27/75
f 21/27/76 20/28/77 16/22/78
f 17/21/79 18/24/80 22/29/81
f 22/29/82 21/27/83 17/21/84
f 18/24/85 15/26/86 19/30/87
f 19/30/88 22/29/89 18/24/90
f 20/28/91 21/27/92 25/31/93
f 25/31/94 24/32/95 20/28/96
f 21/27/97 22/29/98 26/33/99
f 26/33/100 25/31/101 21/27/102
f 22/29/103 19/30/104 23/34/105
f 23/34/106 26/33/107 22/29/108
f 24/32/109 25/31/110 29/35/111
f 29/35/112 28/36/113 24/32/114
f 25/31/115 26/33/116 30/37/117
f 30/37/118 29/35/119 25/31/120
f 26/33/121 23/34/122 27/38/123
f 27/38/124 30/37/125 26/33/126
f 27/38/127 28/36/128 32/39/129
f 32/39/130 31/40/131 27/38/132
f 28/36/133 29/35/134 33/41/135
f 33/41/136 32/39/137 28/36/138
f 29/35/139 30/37/140 34/42/141
f 34/42/142 33/41/143 29/35/144
f 30/37/145 27/38/146 31/40/147
f 31/40/148 34/42/149 30/37/150
f 12/19/151 11/25/152 35/16/153
f 35/16/154 36/15/155 12/19/156
f 13/20/157 12/19/158 36/15/159
f 36/15/160 37/17/161 13/20/162
f 14/23/163 13/20/164 37/17/165
f 37/17/166 38/18/167 14/23/168
f 11/25/169 14/23/170 38/18/171
f 38/18/172 35/16/173 11/25/174
f 31/40/175 32/39/176 40/12/177
f 40/12/178 39/11/179 31/40/180
f 32/39/181 33/41/182 41/13/183
f 41/13/184 40/12/185 32/39/186
f 33/41/187 34/42/188 42/14/189
f 42/14/190 41/13/191 33/41/192
f 34/42/193 31/40/194 39/11/195
f 39/11/196 42/14/197 34/42/198
f 3/2/199 1/1/200 44/43/201
f 44/43/202 43/44/203 3/2/204
f 1/1/205 2/8/206 45/45/207
f 45/45/208 44/43/209 1/1/210
f 2/8/211 4/7/212 46/46/213
f 46/46/214 45/45/215 2/8/216
f 4/7/217 9/5/218 47/47/219
f 47/47/220 46/46/221 4/7/222
f 9/5/223 3/2/224 43/44/225
f 43/44/226 47/47/227 9/5/228
f 43/44/229 44/43/230 49/48/231
f 49/48/232 48/49/233 43/44/234
f 44/43/235 45/45/236 50/50/237
f 50/50/238 49/48/239 44/43/240
f 45/45/241 46/46/242 51/51/243
f 51/51/244 50/50/245 45/45/246
f 46/46/247 47/47/248 52/52/249
f 52/52/250 51/51/251 46/46/252
f 47/47/253 43/44/254 48/49/255
f 48/49/256 52/52/257 47/47/258
f 16/22/259 20/28/260 24/32/261
f 24/32/262 28/36/263 27/38/264
f 27/38/265 23/34/266 19/30/267
f 19/30/268 15/26/269 11/25/270
f 27/38/271 19/30/272 11/25/273
f 24/32/274 27/38/275 11/25/276
f 16/22/277 24/32/278 11/25/279
f 12/19/280 16/22/281 11/25/282
