# This file uses centimeters as units for non-parametric coordinates.

mtllib brazoDer.mtl
g default
v -0.374012 0.323899 -0.345194
v 0.010720 0.224855 0.116976
v 0.245349 0.132485 0.104436
v 0.297144 -0.224449 0.476376
v 1.005279 -0.533635 0.091895
v 0.753286 -0.525064 0.415400
v 0.392049 -0.774042 0.263671
v 0.530982 -0.873793 0.270319
v 0.391293 -0.774125 -0.218481
v 0.687090 -0.981276 -0.199172
v 0.276854 -0.255748 -0.421701
v 1.009394 -0.843453 -0.309348
v -0.147822 0.044943 -0.499150
v 1.313313 -1.049685 0.354152
v 1.070129 -1.247415 0.225537
v 1.052777 -1.224719 -0.202325
v 1.290219 -1.044344 -0.265373
v 1.338339 -1.029477 0.051195
v 1.801145 -1.760706 0.500381
v 1.254870 -1.479441 0.276958
v 1.606572 -1.913686 0.442629
v 1.536538 -1.380815 0.385096
v 1.851425 -1.829883 0.021062
v 1.538874 -1.402187 0.023032
v 1.275615 -1.496451 0.018877
v 1.651156 -1.974598 0.021268
v 1.803248 -1.763330 -0.461608
v 1.524892 -1.371214 -0.326956
v 1.607940 -1.915676 -0.404700
v 1.248874 -1.463575 -0.263852
v 1.332477 -1.100783 0.551996
v 1.456961 -1.309848 0.571257
v 1.246548 -1.464045 0.453464
v 1.103855 -1.283558 0.431862
v 1.389563 -1.149595 0.767464
v 1.150019 -1.328307 0.765844
v 1.478196 -1.336941 0.736941
v 1.281053 -1.480667 0.736776
v 0.035469 0.023986 0.537353
v 0.349202 -0.754406 0.257025
v 0.349146 -0.752783 -0.237789
vt 1.000000 0.000000
vt 0.000000 0.000000
vt 0.000000 1.000000
vt 1.000000 0.000000
vt 0.000000 0.000000
vt 0.000000 1.000000
vt 1.000000 0.000000
vt 0.000000 0.000000
vt 0.000000 1.000000
vt 1.000000 0.000000
vt 0.000000 0.000000
vt 0.000000 1.000000
vt 1.000000 0.000000
vt 0.000000 0.000000
vt 0.000000 1.000000
vt 1.000000 0.000000
vt 0.000000 0.000000
vt 0.000000 1.000000
vt 1.000000 0.000000
vt 0.000000 0.000000
vt 0.000000 1.000000
vt 1.000000 0.000000
vt 0.000000 0.000000
vt 0.000000 1.000000
vt 1.000000 0.000000
vt 0.000000 0.000000
vt 0.000000 1.000000
vt 1.000000 0.000000
vt 0.000000 0.000000
vt 0.000000 1.000000
vt 1.000000 0.000000
vt 0.000000 0.000000
vt 0.000000 1.000000
vt 1.000000 0.000000
vt 1.000000 0.000000
vt 0.000000 1.000000
vt 0.000000 0.000000
vt 1.000000 0.000000
vt 0.000000 0.000000
vt 1.000000 0.000000
vt 1.000000 0.000000
vt 0.000000 0.000000
vt 1.000000 0.000000
vt 0.000000 0.000000
vt 0.000000 1.000000
vt 1.000000 0.000000
vt 0.000000 1.000000
vt 1.000000 0.000000
vt 0.000000 0.000000
vt 1.000000 0.000000
vt 0.000000 1.000000
vt 1.000000 0.000000
vt 0.000000 0.000000
vt 0.000000 1.000000
vt 1.000000 0.000000
vt 0.000000 0.000000
vt 1.000000 0.000000
vt 0.000000 0.000000
vt 1.000000 0.000000
vt 0.000000 1.000000
vt 1.000000 0.000000
vt 0.000000 0.000000
vt 1.000000 0.000000
vt 0.000000 1.000000
vt 1.000000 0.000000
vt 0.000000 0.000000
vt 1.000000 0.000000
vt 0.000000 0.000000
vt 0.000000 1.000000
vt 0.000000 1.000000
vt 0.000000 1.000000
vt 0.000000 1.000000
vt 0.000000 0.000000
vt 0.000000 1.000000
vt 0.000000 1.000000
vt 0.000000 1.000000
vt 0.000000 1.000000
vt 1.000000 0.000000
vt 0.000000 0.000000
vt 0.000000 1.000000
vt 1.000000 0.000000
vt 0.000000 1.000000
vt 1.000000 0.000000
vt 0.000000 1.000000
vt 0.000000 0.000000
vt 1.000000 0.000000
vt 0.000000 0.000000
vt 0.000000 1.000000
vt 0.000000 1.000000
vt 1.000000 0.000000
vt 0.000000 0.000000
vt 0.000000 1.000000
vt 1.000000 0.000000
vt 0.000000 0.000000
vt 0.000000 1.000000
vt 1.000000 0.000000
vt 1.000000 0.000000
vt 0.000000 0.000000
vt 0.000000 1.000000
vt 1.000000 0.000000
vt 0.000000 1.000000
vt 1.000000 0.000000
vt 1.000000 0.000000
vt 0.000000 1.000000
vt 1.000000 0.000000
vt 0.000000 1.000000
vt 1.000000 0.000000
vt 0.000000 1.000000
vn 0.587665 0.808713 -0.025160
vn 0.270609 0.184302 0.944883
vn 0.712717 0.699235 0.055723
vn 0.182417 0.112326 0.976784
vn 0.712717 0.699235 0.055723
vn 0.505226 0.486348 0.712890
vn 0.270609 0.184302 0.944883
vn -0.422659 -0.724815 0.544061
vn 0.102513 0.018884 0.994552
vn -0.506406 -0.731275 0.456935
vn 0.102513 0.018884 0.994552
vn -0.422659 -0.724815 0.544061
vn -0.422659 -0.724815 0.544061
vn -0.389484 -0.803254 -0.450650
vn -0.506406 -0.731275 0.456935
vn -0.452222 -0.701259 -0.551118
vn -0.506406 -0.731275 0.456935
vn -0.389484 -0.803254 -0.450650
vn -0.389484 -0.803254 -0.450650
vn 0.020683 -0.151079 -0.988305
vn -0.452222 -0.701259 -0.551118
vn 0.286759 0.228329 -0.930395
vn -0.452222 -0.701259 -0.551118
vn 0.145571 0.003594 -0.989341
vn 0.327269 0.251746 -0.910779
vn 0.587665 0.808713 -0.025160
vn 0.286759 0.228329 -0.930395
vn 0.712717 0.699235 0.055723
vn 0.286759 0.228329 -0.930395
vn 0.587665 0.808713 -0.025160
vn 0.633671 0.381101 -0.673219
vn 0.662600 0.737221 -0.132160
vn 0.440649 0.408275 -0.799463
vn 0.630932 0.652502 0.419722
vn 0.712717 0.699235 0.055723
vn 0.102513 0.018884 0.994552
vn -0.821651 -0.471056 0.320929
vn 0.102513 0.018884 0.994552
vn -0.506406 -0.731275 0.456935
vn -0.141100 0.504185 0.851991
vn -0.016182 -0.153726 0.987981
vn -0.821651 -0.471056 0.320929
vn -0.452222 -0.701259 -0.551118
vn -0.666094 -0.695758 0.268775
vn -0.506406 -0.731275 0.456935
vn -0.556403 -0.560898 -0.613033
vn -0.666094 -0.695758 0.268775
vn -0.452222 -0.701259 -0.551118
vn 0.286759 0.228329 -0.930395
vn -0.556403 -0.560898 -0.613033
vn -0.452222 -0.701259 -0.551118
vn 0.001797 0.124919 -0.992165
vn -0.556403 -0.560898 -0.613033
vn 0.286759 0.228329 -0.930395
vn 0.509534 0.417872 -0.752169
vn 0.286759 0.228329 -0.930395
vn 0.712717 0.699235 0.055723
vn 0.848574 0.528561 -0.023372
vn 0.784166 0.586326 -0.203236
vn 0.712717 0.699235 0.055723
vn -0.354057 0.053917 0.933668
vn -0.766001 -0.445935 0.463017
vn -0.786798 -0.484668 0.382159
vn -0.014386 -0.495410 0.868540
vn -0.766001 -0.445935 0.463017
vn -0.354057 0.053917 0.933668
vn 0.811576 0.584191 -0.008089
vn 0.831291 0.554493 0.038644
vn 0.819817 0.572614 0.003596
vn 0.834756 0.549915 -0.027855
vn 0.831291 0.554493 0.038644
vn 0.811576 0.584191 -0.008089
vn -0.507151 -0.752634 0.419928
vn -0.778568 -0.627529 -0.006293
vn -0.145695 -0.988387 0.043169
vn -0.635455 -0.629164 0.447605
vn -0.778568 -0.627529 -0.006293
vn -0.507151 -0.752634 0.419928
vn -0.431638 -0.899245 0.071040
vn -0.145695 -0.988387 0.043169
vn 0.576137 -0.798143 0.176167
vn 0.576137 -0.798143 0.176167
vn -0.145695 -0.988387 0.043169
vn 0.584183 -0.809768 -0.054823
vn 0.812721 0.582570 0.009889
vn 0.834756 0.549915 -0.027855
vn 0.811576 0.584191 -0.008089
vn 0.815950 0.577815 0.018871
vn 0.834756 0.549915 -0.027855
vn 0.812721 0.582570 0.009889
vn -0.574603 -0.183441 -0.797610
vn -0.273399 0.066551 -0.959596
vn -0.337177 0.082721 -0.937800
vn -0.675992 -0.377549 -0.632844
vn -0.273399 0.066551 -0.959596
vn -0.574603 -0.183441 -0.797610
vn -0.145695 -0.988387 0.043169
vn -0.675992 -0.377549 -0.632844
vn -0.072825 -0.670708 -0.738138
vn -0.778568 -0.627529 -0.006293
vn -0.675992 -0.377549 -0.632844
vn -0.145695 -0.988387 0.043169
vn -0.145695 -0.988387 0.043169
vn 0.161785 -0.975205 -0.150999
vn 0.584183 -0.809768 -0.054823
vn 0.584183 -0.809768 -0.054823
vn 0.161785 -0.975205 -0.150999
vn 0.575511 -0.800319 -0.168157
vn -0.821651 -0.471056 0.320929
vn -0.556403 -0.560898 -0.613033
vn -0.778568 -0.627529 -0.006293
vn 0.834756 0.549915 -0.027855
vn 0.815950 0.577815 0.018871
vn 0.784166 0.586326 -0.203236
vn -0.273399 0.066551 -0.959596
vn -0.675992 -0.377549 -0.632844
vn 0.001797 0.124919 -0.992165
vn -0.556403 -0.560898 -0.613033
vn 0.001797 0.124919 -0.992165
vn -0.675992 -0.377549 -0.632844
vn -0.675992 -0.377549 -0.632844
vn -0.778568 -0.627529 -0.006293
vn -0.556403 -0.560898 -0.613033
vn 0.784166 0.586326 -0.203236
vn 0.848574 0.528561 -0.023372
vn 0.834756 0.549915 -0.027855
vn -0.821651 -0.471056 0.320929
vn -0.778568 -0.627529 -0.006293
vn -0.635455 -0.629164 0.447605
vn 0.831291 0.554493 0.038644
vn 0.834756 0.549915 -0.027855
vn 0.848574 0.528561 -0.023372
vn -0.141100 0.504185 0.851991
vn -0.854864 -0.311023 0.415297
vn -0.685587 0.676602 0.268664
vn 0.998963 0.007193 -0.044958
vn 0.802643 0.569850 0.176168
vn 0.870978 0.489869 -0.037751
vn 0.831291 0.554493 0.038644
vn 0.802643 0.569850 0.176168
vn 0.967989 0.250760 0.010785
vn -0.339831 -0.934984 0.101590
vn 0.117711 -0.755688 0.644267
vn 0.545561 -0.836767 0.046737
vn -0.585103 -0.810696 0.020672
vn 0.325575 -0.902075 0.283304
vn -0.339831 -0.934984 0.101590
vn -0.821651 -0.471056 0.320929
vn -0.635455 -0.629164 0.447605
vn -0.494508 -0.858646 0.134866
vn -0.685587 0.676602 0.268664
vn -0.854864 -0.311023 0.415297
vn -0.947345 0.239083 0.213018
vn -0.821651 -0.471056 0.320929
vn -0.494508 -0.858646 0.134866
vn -0.978714 0.035050 0.202214
vn -0.372223 0.400993 0.837051
vn -0.655155 0.712672 0.250738
vn -0.350490 0.462827 0.814216
vn -0.685587 0.676602 0.268664
vn -0.947345 0.239083 0.213018
vn -0.372223 0.400993 0.837051
vn 0.985599 0.068344 -0.154674
vn 0.870978 0.489869 -0.037751
vn 0.887157 0.441332 -0.134826
vn 0.998963 0.007193 -0.044958
vn 0.870978 0.489869 -0.037751
vn 0.985599 0.068344 -0.154674
vn 0.199547 -0.972568 -0.119549
vn 0.923109 -0.382007 0.044043
vn 0.985599 0.068344 -0.154674
vn 0.158185 -0.976073 0.149197
vn 0.979324 -0.189750 0.070144
vn 0.204046 -0.803598 0.559103
vn -0.638129 -0.611166 0.468261
vn -0.339831 -0.934984 0.101590
vn 0.204046 -0.803598 0.559103
vn -0.978714 0.035050 0.202214
vn -0.494508 -0.858646 0.134866
vn -0.638129 -0.611166 0.468261
vn -0.826224 -0.245440 0.507063
vn 0.017981 -0.656295 0.754290
vn -0.372223 0.400993 0.837051
vn -0.372223 0.400993 0.837051
vn 0.017981 -0.656295 0.754290
vn 0.086309 -0.120473 0.988958
vn 0.848574 0.528561 -0.023372
vn 0.712717 0.699235 0.055723
vn 0.802643 0.569850 0.176168
vn 0.802643 0.569850 0.176168
vn 0.831291 0.554493 0.038644
vn 0.848574 0.528561 -0.023372
vn 0.563810 0.654632 0.503563
vn 0.587665 0.808713 -0.025160
vn 0.662600 0.737221 -0.132160
vn 0.537607 0.816300 -0.211267
vn 0.587665 0.808713 -0.025160
vn 0.241738 0.142886 -0.959764
vn 0.505381 0.544948 0.669045
vn 0.396533 0.317406 0.861403
vn 0.587665 0.808713 -0.025160
vn 0.515024 -0.305599 0.800849
vn 0.168168 0.016187 0.985626
vn 0.601568 0.275157 0.749937
vn 0.440649 0.408275 -0.799463
vn 0.241738 0.142886 -0.959764
vn 0.242843 -0.513568 -0.822968
vn 0.662600 0.737221 -0.132160
vn 0.418911 0.386549 -0.821641
vn 0.440649 0.408275 -0.799463
vn -0.216607 -0.780143 -0.586905
vn -0.389484 -0.803254 -0.450650
vn -0.422659 -0.724815 0.544061
vn 0.241738 0.142886 -0.959764
vn -0.389484 -0.803254 -0.450650
vn 0.424991 -0.456438 -0.781695
vn -0.341633 -0.649103 0.679670
vn -0.422659 -0.724815 0.544061
vn -0.010787 -0.160014 0.987056
vn -0.216607 -0.780143 -0.586905
vn -0.422659 -0.724815 0.544061
vn -0.341633 -0.649103 0.679670
s off
g polySurface6 polySurface5 polySurface3 pedro:Mesh
usemtl pedro:skin
f 3/1/1 4/2/2 5/3/3
f 6/4/4 5/5/5 4/6/6
f 4/7/7 7/8/8 6/9/9
f 8/10/10 6/11/11 7/12/12
f 7/13/13 9/14/14 8/15/15
f 10/16/16 8/17/17 9/18/18
f 9/19/19 11/20/20 10/21/21
f 12/22/22 10/23/23 11/24/24
f 11/25/25 3/26/26 12/27/27
f 5/28/28 12/29/29 3/30/30
f 1/31/31 2/32/32 13/33/33
f 14/34/34 5/5/35 6/9/36
f 15/35/37 6/11/38 8/15/39
f 14/34/40 6/11/41 15/36/42
f 10/16/43 15/37/44 8/15/45
f 16/38/46 15/37/47 10/21/48
f 12/22/49 16/39/50 10/21/51
f 17/40/52 16/39/53 12/27/54
f 17/40/55 12/29/56 5/3/57
f 18/41/58 17/42/59 5/3/60
f 19/43/61 20/44/62 21/45/63
f 22/46/64 20/44/65 19/47/66
f 23/48/67 22/49/68 19/47/69
f 24/50/70 22/49/71 23/51/72
f 21/52/73 25/53/74 26/54/75
f 20/55/76 25/53/77 21/45/78
f 21/52/79 26/56/80 19/47/81
f 19/43/82 26/56/83 23/51/84
f 27/57/85 24/58/86 23/51/87
f 28/59/88 24/58/89 27/60/90
f 29/61/91 28/62/92 27/60/93
f 30/63/94 28/62/95 29/64/96
f 26/65/97 30/66/98 29/64/99
f 25/67/100 30/66/101 26/54/102
f 26/65/103 29/68/104 23/51/105
f 23/48/106 29/68/107 27/60/108
f 15/35/109 16/39/110 25/69/111
f 24/50/112 28/62/113 17/70/114
f 28/59/115 30/66/116 17/70/117
f 16/38/118 17/42/119 30/71/120
f 30/63/121 25/53/122 16/72/123
f 17/40/124 18/73/125 24/74/126
f 15/35/127 25/53/128 20/75/129
f 22/46/130 24/58/131 18/76/132
f 14/34/133 15/37/134 31/77/135
f 32/78/136 14/79/137 31/77/138
f 22/46/139 14/79/140 32/80/141
f 33/81/142 22/49/143 32/80/144
f 20/55/145 22/49/146 33/82/147
f 15/35/148 20/44/149 33/82/150
f 31/83/151 15/37/152 34/84/153
f 15/35/154 33/85/155 34/84/156
f 35/86/157 34/87/158 36/88/159
f 31/83/160 34/87/161 35/89/162
f 37/90/163 31/91/164 35/89/165
f 32/78/166 31/91/167 37/92/168
f 38/93/169 32/94/170 37/92/171
f 33/81/172 32/94/173 38/95/174
f 36/96/175 33/85/176 38/95/177
f 34/97/178 33/85/179 36/88/180
f 36/96/181 38/98/182 35/89/183
f 35/86/184 38/98/185 37/92/186
f 18/41/187 5/5/188 14/99/189
f 14/34/190 22/49/191 18/76/192
f 39/100/193 3/26/194 2/101/195
f 2/102/196 3/26/197 11/24/198
f 39/100/199 4/2/200 3/30/201
f 40/103/202 4/2/203 39/104/204
f 13/105/205 11/20/206 41/106/207
f 2/102/208 11/20/209 13/33/210
f 41/107/211 9/14/212 7/12/213
f 11/25/214 9/14/215 41/106/216
f 40/103/217 7/8/218 4/6/219
f 41/107/220 7/8/221 40/108/222
