# This file uses centimeters as units for non-parametric coordinates.

mtllib pieIzq.mtl
g default
v 0.081689 -0.902067 -0.822910
v -0.361937 -2.126557 -0.378692
v -0.357534 -1.250912 -0.380993
v 0.021706 -2.126556 -0.977085
v 0.405350 -2.126557 -0.378692
v 0.250582 -1.419734 0.253453
v 0.330248 -1.703340 0.322123
v -0.209949 -1.419734 0.253453
v -0.288225 -1.703340 0.322123
v 0.257099 -1.218732 0.377994
v -0.216466 -1.218732 0.377994
v -0.053514 0.056114 -1.121345
v -0.627342 0.056138 -0.101527
v 0.320330 0.056109 0.789979
v -0.323934 0.056118 0.762648
v -0.112751 -2.126557 0.629778
v -0.394507 -2.126557 0.629778
v 0.437920 -2.126557 0.629778
v 0.383631 -1.825432 0.835207
v 0.154566 -1.825432 0.835206
v -0.340219 -1.825432 0.835206
v 0.347765 -1.900861 1.128322
v 0.221869 -1.900861 1.156435
v 0.396673 -2.126557 1.165609
v -0.304352 -1.926133 1.052966
v -0.353261 -2.126557 1.082634
v 0.196071 -2.126557 1.203552
v -0.050861 -1.908848 1.134099
v 0.114050 -2.126557 1.203552
v 0.082993 -1.908848 1.156484
v -0.113466 -1.825432 0.835206
v 0.154566 -2.126557 0.629778
v -0.171872 -2.126557 1.142058
v -0.079275 -2.126557 1.172289
v -0.207516 -1.926133 1.083195
v 0.506303 0.056100 0.264806
v 0.398166 -1.250912 -0.380993
v 0.506303 0.056100 -0.594640
v 0.506303 0.056100 -0.594640
v 0.506303 0.056100 0.264806
v 0.398166 -1.250912 -0.380993
vt 1.000000 0.000000
vt 0.000000 0.000000
vt 0.000000 1.000000
vt 1.000000 0.000000
vt 0.000000 1.000000
vt 1.000000 0.000000
vt 0.000000 0.000000
vt 1.000000 0.000000
vt 0.000000 1.000000
vt 1.000000 0.000000
vt 0.000000 0.000000
vt 1.000000 0.000000
vt 0.000000 1.000000
vt 1.000000 0.000000
vt 0.000000 0.000000
vt 1.000000 0.000000
vt 0.000000 1.000000
vt 1.000000 0.000000
vt 0.000000 0.000000
vt 1.000000 0.000000
vt 0.000000 0.000000
vt 0.000000 1.000000
vt 1.000000 0.000000
vt 0.000000 0.000000
vt 0.000000 1.000000
vt 0.000000 0.000000
vt 1.000000 0.000000
vt 0.000000 0.000000
vt 0.000000 1.000000
vt 0.000000 1.000000
vt 1.000000 0.000000
vt 0.000000 0.000000
vt 0.000000 1.000000
vt 1.000000 0.000000
vt 0.000000 0.000000
vt 0.000000 1.000000
vt 1.000000 0.000000
vt 0.000000 0.000000
vt 0.000000 1.000000
vt 0.000000 1.000000
vt 1.000000 0.000000
vt 0.000000 0.000000
vt 0.000000 1.000000
vt 0.000000 0.000000
vt 0.000000 1.000000
vt 0.000000 0.000000
vt 0.000000 1.000000
vt 1.000000 0.000000
vt 0.000000 1.000000
vt 1.000000 0.000000
vt 0.000000 1.000000
vt 0.000000 0.000000
vt 0.000000 1.000000
vt 0.000000 0.000000
vt 0.000000 1.000000
vt 1.000000 0.000000
vt 0.000000 1.000000
vt 1.000000 0.000000
vt 0.000000 1.000000
vt 0.000000 0.000000
vt 0.000000 1.000000
vt 1.000000 0.000000
vt 0.000000 1.000000
vt 1.000000 0.000000
vt 0.000000 0.000000
vt 1.000000 0.000000
vt 0.000000 0.000000
vt 0.000000 1.000000
vt 1.000000 0.000000
vt 0.000000 1.000000
vt 0.000000 0.000000
vt 1.000000 0.000000
vt 0.000000 0.000000
vt 0.000000 1.000000
vt 1.000000 0.000000
vt 1.000000 0.000000
vt 0.000000 0.000000
vt 0.000000 1.000000
vt 0.000000 0.000000
vt 0.000000 1.000000
vt 1.000000 0.000000
vt 0.000000 1.000000
vt 1.000000 0.000000
vt 0.000000 1.000000
vt 1.000000 0.000000
vt 0.000000 0.000000
vt 1.000000 0.000000
vt 0.000000 0.000000
vt 1.000000 0.000000
vt 0.000000 0.000000
vt 1.000000 0.000000
vt 0.000000 0.000000
vt 0.000000 1.000000
vt 1.000000 0.000000
vt 0.000000 0.000000
vt 0.000000 1.000000
vt 1.000000 0.000000
vt 0.000000 0.000000
vt 0.000000 1.000000
vt 1.000000 0.000000
vt 0.000000 1.000000
vt 0.000000 0.000000
vt 0.000000 0.000000
vt 0.000000 1.000000
vt 1.000000 0.000000
vt 0.000000 0.000000
vt 0.000000 1.000000
vn -0.452095 -0.108754 -0.885315
vn -0.944854 0.090800 -0.314652
vn -0.977220 -0.074618 -0.198680
vn -0.836802 0.108757 -0.536596
vn -0.944854 0.090800 -0.314652
vn -0.715099 -0.071960 -0.695310
vn 0.980121 -0.081827 -0.180738
vn 0.833158 0.017975 -0.552743
vn 0.751531 -0.089896 -0.653544
vn 0.986066 0.130337 -0.103371
vn 0.833158 0.017975 -0.552743
vn 0.980121 -0.081827 -0.180738
vn 0.682575 -0.163674 0.712252
vn 0.986066 0.130337 -0.103371
vn 0.980121 -0.081827 -0.180738
vn 0.738868 0.668757 0.082696
vn 0.986066 0.130337 -0.103371
vn 0.991452 0.040449 0.124044
vn -0.496294 0.030569 0.867616
vn 0.264305 0.717398 0.644580
vn 0.515411 -0.253658 0.818541
vn -0.562058 0.724830 0.398387
vn 0.264305 0.717398 0.644580
vn -0.496294 0.030569 0.867616
vn -0.977220 -0.074618 -0.198680
vn -0.659642 0.670426 0.339707
vn -0.496294 0.030569 0.867616
vn -0.944854 0.090800 -0.314652
vn -0.659642 0.670426 0.339707
vn -0.977220 -0.074618 -0.198680
vn 0.682575 -0.163674 0.712252
vn 0.980121 -0.081827 -0.180738
vn 0.596253 -0.335449 0.729353
vn -0.594390 -0.396560 0.699600
vn 0.515411 -0.253658 0.818541
vn 0.596253 -0.335449 0.729353
vn -0.496294 0.030569 0.867616
vn 0.515411 -0.253658 0.818541
vn -0.594390 -0.396560 0.699600
vn -0.977220 -0.074618 -0.198680
vn -0.496294 0.030569 0.867616
vn -0.594390 -0.396560 0.699600
vn -0.725545 -0.204088 -0.657216
vn -0.977220 -0.074618 -0.198680
vn -0.984626 -0.174445 0.008992
vn -0.190592 -0.144742 -0.970940
vn -0.977220 -0.074618 -0.198680
vn -0.330954 -0.239222 -0.912821
vn 0.980121 -0.081827 -0.180738
vn 0.520793 -0.178994 -0.834707
vn 0.859540 -0.135764 -0.492707
vn 0.596253 -0.335449 0.729353
vn 0.980121 -0.081827 -0.180738
vn 0.975039 -0.137494 0.174339
vn 0.547732 -0.281511 0.787871
vn 0.596253 -0.335449 0.729353
vn 0.975039 -0.137494 0.174339
vn -0.594390 -0.396560 0.699600
vn 0.596253 -0.335449 0.729353
vn -0.379318 -0.302016 0.874588
vn -0.984626 -0.174445 0.008992
vn -0.594390 -0.396560 0.699600
vn -0.379318 -0.302016 0.874588
vn -0.977220 -0.074618 -0.198680
vn -0.594390 -0.396560 0.699600
vn -0.984626 -0.174445 0.008992
vn 0.000000 -1.000000 0.000000
vn 0.000000 -1.000000 0.000000
vn 0.000000 -1.000000 0.000000
vn 0.000000 -1.000000 0.000000
vn -0.007194 -0.996395 0.084532
vn 0.000000 -1.000000 0.000000
vn 0.603446 0.643916 0.470346
vn 0.982203 0.187814 -0.001797
vn 0.986066 0.130337 -0.103371
vn -0.659642 0.670426 0.339707
vn -0.944854 0.090800 -0.314652
vn -0.981673 0.184288 0.048544
vn 0.636823 0.745659 0.196084
vn 0.603446 0.643916 0.470346
vn -0.001798 0.952130 0.305689
vn -0.001798 0.952130 0.305689
vn 0.603446 0.643916 0.470346
vn -0.659642 0.670426 0.339707
vn 0.738868 0.668757 0.082696
vn 0.636823 0.745659 0.196084
vn 0.982203 0.187814 -0.001797
vn -0.710308 0.678839 0.186119
vn -0.981673 0.184288 0.048544
vn -0.539372 0.785685 0.302947
vn 0.527121 0.604480 0.597284
vn 0.636823 0.745659 0.196084
vn -0.137579 0.678005 0.722067
vn 0.982203 0.187814 -0.001797
vn 0.636823 0.745659 0.196084
vn 0.713279 0.227566 0.662908
vn 0.527121 0.604480 0.597284
vn 0.713279 0.227566 0.662908
vn 0.636823 0.745659 0.196084
vn -0.539372 0.785685 0.302947
vn -0.981673 0.184288 0.048544
vn -0.661072 0.401140 0.634090
vn -0.750884 0.272476 0.601606
vn -0.661072 0.401140 0.634090
vn -0.981673 0.184288 0.048544
vn 0.713279 0.227566 0.662908
vn -0.137579 0.678005 0.722067
vn -0.526765 0.231022 0.818014
vn -0.137579 0.678005 0.722067
vn 0.713279 0.227566 0.662908
vn 0.527121 0.604480 0.597284
vn 0.636823 0.745659 0.196084
vn -0.001798 0.952130 0.305689
vn -0.137579 0.678005 0.722067
vn -0.639951 0.372107 0.672309
vn 0.266150 0.240974 0.933325
vn 0.246333 0.770466 0.587964
vn -0.436895 -0.898962 0.031464
vn 0.000000 -1.000000 0.000000
vn 0.000000 -1.000000 0.000000
vn 0.246333 0.770466 0.587964
vn -0.008987 0.961655 0.274116
vn -0.446875 0.486438 0.750787
vn 0.000000 -1.000000 0.000000
vn -0.436895 -0.898962 0.031464
vn 0.000000 -0.999612 0.027867
vn -0.137579 0.678005 0.722067
vn -0.352528 0.896607 0.267993
vn -0.804169 0.132081 0.579540
vn -0.193328 -0.981029 0.014387
vn -0.714147 -0.690761 0.113328
vn -0.986118 0.055733 0.156413
vn 0.193331 -0.981041 0.013488
vn 0.983237 0.072799 0.167168
vn 0.904317 -0.398223 0.153716
vn 0.246333 0.770466 0.587964
vn 0.571968 0.183461 0.799496
vn 0.348920 0.897481 0.269784
vn 0.000000 -0.999612 0.027867
vn 0.000000 -1.000000 0.000000
vn 0.000000 -1.000000 0.000000
vn 0.000000 -1.000000 0.000000
vn -0.007194 -0.996395 0.084532
vn 0.000000 -1.000000 0.000000
vn 0.000000 -1.000000 0.000000
vn 0.000000 -1.000000 0.000000
vn -0.007194 -0.996395 0.084532
vn -0.007194 -0.996395 0.084532
vn 0.000000 -1.000000 0.000000
vn 0.000000 -0.999612 0.027867
vn 0.000000 -0.999612 0.027867
vn 0.000000 -1.000000 0.000000
vn -0.007194 -0.996395 0.084532
vn -0.008987 0.961655 0.274116
vn -0.001798 0.952130 0.305689
vn -0.659642 0.670426 0.339707
vn -0.008987 0.961655 0.274116
vn 0.246333 0.770466 0.587964
vn -0.001798 0.952130 0.305689
vn -0.008987 0.961655 0.274116
vn -0.659642 0.670426 0.339707
vn -0.539372 0.785685 0.302947
vn 0.184312 0.757926 0.625761
vn -0.008987 0.961655 0.274116
vn -0.539372 0.785685 0.302947
vn 0.184312 0.757926 0.625761
vn -0.539372 0.785685 0.302947
vn -0.661072 0.401140 0.634090
vn -0.661072 0.401140 0.634090
vn -0.297631 0.216704 0.929761
vn -0.157395 0.750998 0.641271
vn 0.266150 0.240974 0.933325
vn -0.639951 0.372107 0.672309
vn -0.727296 0.209468 0.653578
vn 0.000000 -1.000000 0.000000
vn 0.000000 -0.999612 0.027867
vn 0.688528 -0.723584 0.048539
vn -0.297631 0.216704 0.929761
vn -0.661072 0.401140 0.634090
vn -0.750884 0.272476 0.601606
vn 0.000000 -1.000000 0.000000
vn 0.000000 -1.000000 0.000000
vn 0.000000 -1.000000 0.000000
vn -0.727296 0.209468 0.653578
vn -0.639951 0.372107 0.672309
vn -0.992997 0.009885 0.117722
vn -0.366702 -0.929338 0.043141
vn -0.719315 0.124981 0.683349
vn -0.977876 -0.119538 0.171668
vn 0.629277 0.649954 0.426111
vn 0.972090 0.205928 0.112406
vn 0.979667 0.008988 0.200427
vn 0.979667 0.008988 0.200427
vn 0.357642 -0.930947 0.073685
vn 0.941125 -0.188764 0.280450
vn 0.596253 -0.335449 0.729353
vn 0.547732 -0.281511 0.787871
vn -0.379318 -0.302016 0.874588
vn 0.274109 -0.160871 -0.948148
vn 0.092560 -0.283970 -0.954355
vn 0.624567 -0.182427 -0.759366
vn 0.975039 -0.137494 0.174339
vn 0.980121 -0.081827 -0.180738
vn 0.859540 -0.135764 -0.492707
s off
g polySurface2
usemtl pedro:skin
f 1/1/1 2/2/2 3/3/3
f 4/4/4 2/2/5 1/5/6
f 37/6/7 4/7/8 1/5/9
f 5/8/10 4/7/11 37/9/12
f 6/10/13 5/11/14 37/9/15
f 7/12/16 5/11/17 6/13/18
f 8/14/19 7/15/20 6/13/21
f 9/16/22 7/15/23 8/17/24
f 3/18/25 9/19/26 8/17/27
f 2/20/28 9/19/29 3/3/30
f 6/10/31 37/21/32 10/22/33
f 11/23/34 6/24/35 10/22/36
f 8/14/37 6/24/38 11/25/39
f 3/18/40 8/26/41 11/25/42
f 12/27/43 3/28/44 13/29/45
f 1/1/46 3/28/47 12/30/48
f 37/31/49 1/32/50 38/33/51
f 10/34/52 37/35/53 36/36/54
f 14/37/55 10/38/56 36/39/57
f 11/23/58 10/38/59 15/40/60
f 13/41/61 11/42/62 15/40/63
f 3/18/64 11/42/65 13/29/66
f 4/4/67 5/11/68 2/43/69
f 2/20/70 16/44/71 17/45/72
f 7/12/73 18/46/74 5/47/75
f 9/16/76 2/2/77 17/45/78
f 19/48/79 7/15/80 20/49/81
f 20/50/82 7/15/83 9/51/84
f 7/12/85 19/52/86 18/53/87
f 9/16/88 17/54/89 21/55/90
f 22/56/91 19/52/92 23/57/93
f 18/58/94 19/52/95 24/59/96
f 22/56/97 24/60/98 19/61/99
f 21/62/100 17/54/101 25/63/102
f 26/64/103 25/65/104 17/45/105
f 24/66/106 23/67/107 27/68/108
f 23/69/109 24/60/110 22/70/111
f 19/48/112 20/71/113 23/57/114
f 28/72/115 29/73/116 30/74/117
f 27/75/118 18/46/119 24/59/120
f 30/76/121 31/77/122 28/78/123
f 18/58/124 27/79/125 32/80/126
f 23/69/127 20/71/128 27/68/129
f 32/81/130 27/79/131 20/49/132
f 32/81/133 20/71/134 29/82/135
f 30/76/136 29/73/137 20/49/138
f 32/81/139 5/11/140 18/53/141
f 5/8/142 16/44/143 2/43/144
f 33/83/145 17/54/146 16/84/147
f 16/85/148 5/11/149 32/80/150
f 32/81/151 34/86/152 16/84/153
f 31/87/154 20/71/155 9/51/156
f 31/87/157 30/88/158 20/49/159
f 31/87/160 9/19/161 21/55/162
f 35/89/163 31/77/164 21/55/165
f 35/89/166 21/90/167 25/63/168
f 25/91/169 33/92/170 35/93/171
f 29/94/172 28/95/173 34/96/174
f 34/97/175 32/98/176 29/82/177
f 33/83/178 25/65/179 26/99/180
f 17/100/181 33/92/182 26/99/183
f 34/97/184 28/95/185 16/84/186
f 16/85/187 28/95/188 31/101/189
f 35/89/190 33/92/191 16/84/192
f 35/89/193 16/44/194 31/101/195
f 10/34/196 14/102/197 15/40/198
f 1/1/199 12/103/200 38/104/201
f 40/105/202 41/106/203 39/107/204
